<svg xmlns="http://www.w3.org/2000/svg" xmlns:xlink="http://www.w3.org/1999/xlink" width="200" height="200" viewBox="0 0 200 200">
  <defs>
    <clipPath id="clip-path">
      <rect id="사각형_32740" data-name="사각형 32740" width="200" height="200" transform="translate(0 -0.266)" fill="#fff" stroke="#707070" stroke-width="1"/>
    </clipPath>
  </defs>
  <g id="social" transform="translate(-100 0.266)">
    <g id="youtube_wh" transform="translate(100)" clip-path="url(#clip-path)">
      <path id="패스_47" data-name="패스 47" d="M406.611,299.371a25.015,25.015,0,0,0-17.66-17.658c-15.576-4.175-78.035-4.175-78.035-4.175s-62.458,0-78.035,4.175a25.016,25.016,0,0,0-17.66,17.658c-4.173,15.577-4.173,48.076-4.173,48.076s0,32.5,4.173,48.076a25.014,25.014,0,0,0,17.66,17.658c15.576,4.175,78.035,4.175,78.035,4.175s62.459,0,78.035-4.175a25.013,25.013,0,0,0,17.66-17.658c4.173-15.577,4.173-48.076,4.173-48.076S410.784,314.948,406.611,299.371ZM290.945,377.408V317.486l51.89,29.962Z" transform="translate(-211.049 -247.579)" fill="#fff"/>
    </g>
  </g>
</svg>
