<svg id="logo" xmlns="http://www.w3.org/2000/svg" width="100" height="30" viewBox="0 0 100 30">
  <path id="패스_1" data-name="패스 1" d="M587.662,444.984a5.706,5.706,0,0,0,.737,2.951c.059.088.093.136.093.136l-.308.3-.522-.792-12.6-19.309h0l-.952-1.463H570.84v25H573.6V433.628a5.714,5.714,0,0,0-.732-2.951,1.048,1.048,0,0,0-.092-.131l.307-.306.239.359,12.891,19.747.947,1.463h3.266v-25h-2.763Z" transform="translate(-570.84 -422.458)" fill="#fff"/>
  <path id="패스_2" data-name="패스 2" d="M755.288,477.627c-4.3,0-7.852,3.53-8.448,8.123a9.929,9.929,0,0,0-.093,1.375,8.472,8.472,0,0,0,.039.875,10.546,10.546,0,0,0,.6,2.751,9.015,9.015,0,0,0,5.161,5.377,7.714,7.714,0,0,0,5.469,0,8.992,8.992,0,0,0,5.156-5.377h-2.9a5.256,5.256,0,0,1-9.995,0,8.465,8.465,0,0,1-.732-2.751h14.272v-.875a10.67,10.67,0,0,0-.092-1.375c-.6-4.594-4.15-8.123-8.447-8.123m-5.669,8.123c.508-3.34,2.861-5.877,5.669-5.877s5.157,2.538,5.669,5.877Z" transform="translate(-724.146 -466.777)" fill="#fff"/>
  <path id="패스_3" data-name="패스 3" d="M904.9,421.521c-1.435,0-3.193-1.086-6.132-5.8l-3.507-5.537.79-.829c3.487-3.619,5.793-5.245,8.107-5.245a.3.3,0,0,0,0-.6H896.7a.3.3,0,0,0,0,.6c2.13,0,1.827,1.769-1.367,5.056l-5.518,5.8V393.35a.542.542,0,0,0-.322-.515.558.558,0,0,0-.372-.007l-4.13,1.458a.457.457,0,0,0,.3.863l.205-.066a1.192,1.192,0,0,1,1.553,1.13v24.635a.7.7,0,0,1-.7.7h-1.143a.3.3,0,1,0,0,.6h6.953a.3.3,0,1,0,0-.6h-2.344v-5.639l3.7-3.889,2.94,4.9c1.69,2.885,2.686,4.276,3.594,4.861a2.449,2.449,0,0,0,1.4.365H904.9a.315.315,0,0,0,0-.63" transform="translate(-844.365 -392.799)" fill="#fff"/>
  <path id="패스_4" data-name="패스 4" d="M1209.1,473.441c-.137-.3-1.485-.355-2.617-.355h-.333l-.478.015a5.451,5.451,0,0,0-1.592.345c-1.906.812-3.829,2.839-6.221,5.848a5.008,5.008,0,0,0,.547-2.265c-.058-.938-.713-3.661-2.207-3.661a1.5,1.5,0,0,0-.714.195,30.494,30.494,0,0,0-5.029,3.665h0s-.029.029-.087.083a.5.5,0,0,0-.078.073c-.186.165-.47.418-.674.612-.01,0-.01.009-.01.02a.32.32,0,1,0,.458.447,13.512,13.512,0,0,1,1.349-1.2h0a11.258,11.258,0,0,1,2.061-1.3,1.675,1.675,0,0,1,.625-.131.921.921,0,0,1,.82.447,1.668,1.668,0,0,1,.272.807c.157,2.766-4,9.2-5.282,11.108l-1.035,1.512-.079.1-.019.029-.049.083a1.489,1.489,0,0,0-.2.394,1.451,1.451,0,0,0,.156,1.186,1.419,1.419,0,0,0,1,.657,1.238,1.238,0,0,0,.225.019,1.429,1.429,0,0,0,1.23-.681l3.36-5.367.137-.238c2.93-4.837,4.872-8.035,6.895-9.255a3.464,3.464,0,0,1,1.689-.408c.224.014.449.034.665.054l.059,0c.488.058.937.127,1.338.195a10.68,10.68,0,0,0,1.357.17h.03c.713-.156,2.354-2.255,2.441-3.126v-.034Z" transform="translate(-1109.114 -462.816)" fill="#fff"/>
  <path id="패스_5" data-name="패스 5" d="M1055.608,484.833h0a.45.45,0,0,0-.586.214c-2.207,4.569-5.039,6.966-8.945,6.966-4.893,0-8.594-3.3-8.594-7.7a12.407,12.407,0,0,1,.274-2.664h12.275c1.035,0,1.593-.418,1.69-1.264a4.06,4.06,0,0,0-1.065-3.106c-.811-.909-2.412-2-5.459-2-5.322,0-10.352,5.046-10.352,10.383,0,5.25,3.848,9.067,9.365,9.067,6.543,0,10.44-6.757,11.621-9.3a.438.438,0,0,0-.225-.593m-17.7-4.176h0a6.061,6.061,0,0,1,6.025-4.278c.137,0,.205.009.225.009a6.408,6.408,0,0,1,2.3.52,5.365,5.365,0,0,1,.967.637c.049.058.1.1.127.131a3.018,3.018,0,0,1,.43.438,1.549,1.549,0,0,1,.342,1.337,1.2,1.2,0,0,1-.107.316c0,.015-.01.024-.019.053a.224.224,0,0,0-.04.068,2.3,2.3,0,0,1-2,.855l-.049,0h-8.242Z" transform="translate(-975.23 -464.73)" fill="#fff"/>
</svg>
