<!-- Generator: Adobe Illustrator 24.3.0, SVG Export Plug-In  -->
<svg version="1.1" xmlns="http://www.w3.org/2000/svg" xmlns:xlink="http://www.w3.org/1999/xlink" x="0px" y="0px" width="864px"
	 height="237px" viewBox="0 0 864 237" style="overflow:visible;enable-background:new 0 0 864 237;" xml:space="preserve">
<style type="text/css">
	.st0{fill:#772B2B;}
	.st1{fill:#FFFFFF;}
</style>
<defs>
</defs>

<g>
	<defs>
		<rect id="SVGID_1_" x="0.5" width="862" height="237"/>
	</defs>
	<clipPath id="SVGID_2_">
		<use xlink:href="#SVGID_1_"  style="overflow:visible;"/>
	</clipPath>
</g>
<path id="패스_5966_1_" class="st1" d="M61.3,1C26.5,1,4.7,20.4,4.7,48c0,34.3,24.5,42.5,57.4,50.6c27.6,7,41.8,11.8,41.8,30.7
	s-13.7,30.2-38.2,30.2c-25.7,0-41.3-13-41.3-41H1.6c0,39.4,24,60,63.8,60c37.2,0,61.2-19.7,61.2-50.4c0-35-25.7-43.2-58.1-51.1
	c-28.1-7-41.3-12.2-41.3-30.5C27.2,30.3,40,20,61.1,20c25.2,0,39.1,12,39.1,37.2h22.3C122.5,20.2,102.1,1,61.3,1z M249.7,175.2
	l-61.2-66.7l54.7-55.2h-26.2L167.9,104h-0.5V4.4h-21.1v170.9h21.1v-61h0.5l54,61H249.7z M274.2,28.1V4.4h-21.1v23.8H274.2z
	 M274.2,175.2V53.3h-21.1v121.9H274.2z M358.7,50.7c-16.3,0-29.5,7.4-37,18.7h-0.5V53.3h-20.4v121.9H322v-69.8
	c0-24.5,14.4-37.4,31.7-37.4c17.5,0,28.1,9.1,28.1,34.6v72.7h21.1v-74.4C402.8,67.5,386.5,50.7,358.7,50.7L358.7,50.7z M476.8,50
	c-35.3,0-57.4,24.7-57.4,64.3s22.1,64.3,57.4,64.3c29.8,0,49.7-20.4,52.1-48.2h-22.1c-1.4,17.5-13.4,31-30.2,31
	c-21.6,0-34.8-17.8-34.8-47c0-29,13.2-47,34.8-47c16.8,0,28.8,12,30.2,29.3h22.1C526.4,69.2,506,50,476.8,50L476.8,50z M589.1,50
	c-31,0-47.8,17.5-49,40.6h21.1c0.7-14.4,10.1-24.2,27.8-24.2c16.3,0,27.6,8.4,27.6,28.6v4.8c-9.6,0.7-24.5,2.4-35.3,4.1
	c-35,5.5-46.3,18.2-46.3,38.4c0,20.6,15.8,35.8,41.3,35.8c19.7,0,33.8-7.4,42.2-20.4h0.5c0,6,0.5,11.9,1.7,17.8H640
	c-1.7-7.4-2.9-17.8-2.9-31.2V97.2C637.1,65.1,618.8,50,589.1,50L589.1,50z M616.7,123.2c0,14.4-2.4,21.1-9.8,28.8
	c-6,6.2-15.4,9.6-25.2,9.6c-15.8,0-25-8.4-25-20.9c0-12,7.2-18,28.1-21.1c9.4-1.7,22.6-3.1,31.9-3.8V123.2z M718.9,52.1
	c-15.6,0-27.8,6.5-36,19.9h-0.5V53.3h-20.2v121.9h21.1v-62.2c0-26.9,13-41.8,36-41.8c2.6,0,5.8,0.5,8.4,0.7v-19
	C724.9,52.4,721.9,52.1,718.9,52.1L718.9,52.1z M788,177.6c13.7,0,25.7-4.3,36.2-11.3c17.3-11.5,30-30.2,37.9-48.7
	c1.2-2.6-0.5-3.4-1.7-0.5c-13.2,28.6-31,46.6-60.2,46.6c-32.4,0-58.1-23-58.1-52.6c-0.1-6.2,0.7-12.4,2.2-18.5h81.8
	c7.4,0,9.6-3.4,10.1-7.4c1.4-11-7.2-32.4-41.8-32.4c-33.1,0-66.7,31.2-66.7,67.2C727.8,153.2,751.3,177.6,788,177.6z M787.8,58.1
	c18.5,0,27.6,12.7,27.6,21.8c0,3.1-0.7,6-2.2,7.7c-0.7,0.7-6.2,2.2-9.6,2.2c-15.6,0-31.7,1-58.8,1C750.8,68.9,767.2,58.1,787.8,58.1
	z"/>
</svg>
