<svg xmlns="http://www.w3.org/2000/svg" xmlns:xlink="http://www.w3.org/1999/xlink" width="425" height="237" viewBox="0 0 425 237">
  <defs>
    <clipPath id="clip-path">
      <rect id="area" width="425" height="237" transform="translate(-14418 -16579)" fill="red" opacity="0.212"/>
    </clipPath>
  </defs>
  <g id="img_title_best_wh" transform="translate(14418 16579)" clip-path="url(#clip-path)">
    <path id="패스_5969" data-name="패스 5969" d="M-425.52-170.88V0h60.24c36,0,56.88-18.48,56.88-47.04,0-20.88-11.76-35.28-32.16-40.08v-.48c18.48-6.72,28.32-20.64,28.32-39.84,0-25.92-18.24-43.44-57.6-43.44Zm22.08,18.72h32.88c25.68,0,36.48,9.84,36.48,27.84,0,17.28-10.56,28.08-37.44,28.08h-31.92Zm0,74.4h31.92c28.56,0,40.32,11.04,40.32,29.52,0,19.2-12,29.52-37.2,29.52h-35.04Zm162,64.8c-19.92,0-35.28-13.68-36.24-43.68h91.2c0-10.56-.72-19.2-2.4-26.16-6.24-26.16-25.68-42.48-53.28-42.48-35.52,0-56.64,26.64-56.64,62.64,0,39.84,21.36,66,57.36,66,31.2,0,49.68-18.48,53.76-39.84h-21.6C-212.16-22.8-223.68-12.96-241.44-12.96Zm-.72-96c18.72,0,32.64,12.48,34.8,36.24h-70.08C-275.28-96-261.6-108.96-242.16-108.96Zm113.52-16.32c-26.64,0-45.12,14.4-45.12,35.28,0,26.64,20.88,30.72,41.28,35.76,23.52,5.76,33.6,8.4,33.6,22.56,0,11.04-10.56,18.24-26.4,18.24-18.96,0-30-9.6-30-27.12h-21.36c.24,28.56,19.2,43.92,51.12,43.92,29.52,0,48.24-14.64,48.24-36.48,0-28.32-23.76-33.36-46.08-38.88-20.4-4.8-29.28-6.96-29.28-19.68,0-10.56,9.12-17.28,23.76-17.28,17.04,0,27.12,8.88,27.12,25.2h20.64C-81.12-110.64-98.88-125.28-128.64-125.28ZM-39.12,2.4C-22.56,2.4-8.64-12.96-.96-28.56,0-30.48-3.36-31.92-4.08-30-9.6-13.92-18.96-5.04-28.56-5.04c-10.08,0-15.6-9.12-15.6-26.4V-106.8c8.16,0,27.6.24,29.52.24,7.44-6.72,11.76-11.52,11.76-12.96,0-.48-.48-.72-8.4-.48s-25.2.24-32.4.24v-23.28c0-.96-.48-.72-.96-.24L-75.36-108c-.48.48-.24,1.2,0,1.2h13.2v76.08C-62.16-7.68-55.2,2.4-39.12,2.4Z" transform="translate(-13992 -16408)" fill="#fff"/>
  </g>
</svg>
