<svg xmlns="http://www.w3.org/2000/svg" width="479.453" height="174.24" viewBox="0 0 479.453 174.24">
  <path id="패스_6024" data-name="패스 6024" d="M-353.28-151.2v-19.68H-460.32V0h22.08V-73.2h79.68V-92.88h-79.68V-151.2Zm57.6,25.92c-30.96,0-47.76,17.52-48.96,40.56h21.12c.72-14.4,10.08-24.24,27.84-24.24,16.32,0,27.6,8.4,27.6,28.56v4.8c-9.6.72-24.48,2.4-35.28,4.08-35.04,5.52-46.32,18.24-46.32,38.4,0,20.64,15.84,35.76,41.28,35.76,19.68,0,33.84-7.44,42.24-20.4h.48A89.016,89.016,0,0,0-264,0h19.2c-1.68-7.44-2.88-17.76-2.88-31.2V-78C-247.68-110.16-265.92-125.28-295.68-125.28Zm27.6,73.2c0,14.4-2.4,21.12-9.84,28.8-6,6.24-15.36,9.6-25.2,9.6-15.84,0-24.96-8.4-24.96-20.88,0-12,7.2-18,28.08-21.12,9.36-1.68,22.56-3.12,31.92-3.84Zm94.08-73.2c-35.28,0-57.36,24.72-57.36,64.32S-209.28,3.36-174,3.36c29.76,0,49.68-20.4,52.08-48.24H-144c-1.44,17.52-13.44,30.96-30.24,30.96-21.6,0-34.8-17.76-34.8-47.04,0-29.04,13.2-47.04,34.8-47.04,16.8,0,28.8,12,30.24,29.28h22.08C-124.32-106.08-144.72-125.28-174-125.28ZM-55.44,2.4c13.68,0,25.68-4.32,36.24-11.28C-1.92-20.4,10.8-39.12,18.72-57.6c1.2-2.64-.48-3.36-1.68-.48C3.84-29.52-13.92-11.52-43.2-11.52c-32.4,0-58.08-23.04-58.08-52.56a73.688,73.688,0,0,1,2.16-18.48h81.84c7.44,0,9.6-3.36,10.08-7.44,1.44-11.04-7.2-32.4-41.76-32.4-33.12,0-66.72,31.2-66.72,67.2C-115.68-22.08-92.16,2.4-55.44,2.4Zm-.24-119.52c18.48,0,27.6,12.72,27.6,21.84,0,3.12-.72,6-2.16,7.68-.72.72-6.24,2.16-9.6,2.16-15.6,0-31.68.96-58.8.96C-92.64-106.32-76.32-117.12-55.68-117.12Z" transform="translate(460.32 170.88)" fill="#fff"/>
</svg>
